<svg width="24" height="24" viewBox="0 0 24 24" fill="none" xmlns="http://www.w3.org/2000/svg">
<path fill-rule="evenodd" clip-rule="evenodd" d="M2.25 11C2.25 10.5858 2.58579 10.25 3 10.25H21C21.4142 10.25 21.75 10.5858 21.75 11C21.75 11.4142 21.4142 11.75 21 11.75H3C2.58579 11.75 2.25 11.4142 2.25 11Z" fill="#1B1B1B"/>
<path fill-rule="evenodd" clip-rule="evenodd" d="M2.25 4.5C2.25 4.08579 2.58579 3.75 3 3.75H21C21.4142 3.75 21.75 4.08579 21.75 4.5C21.75 4.91421 21.4142 5.25 21 5.25H3C2.58579 5.25 2.25 4.91421 2.25 4.5Z" fill="#1B1B1B"/>
<path fill-rule="evenodd" clip-rule="evenodd" d="M2.25 17.5C2.25 17.0858 2.58579 16.75 3 16.75H21C21.4142 16.75 21.75 17.0858 21.75 17.5C21.75 17.9142 21.4142 18.25 21 18.25H3C2.58579 18.25 2.25 17.9142 2.25 17.5Z" fill="#1B1B1B"/>
</svg>
